<svg width="44" height="44" viewBox="0 0 44 44" xmlns="http://www.w3.org/2000/svg"><g fill="none" fill-rule="evenodd"><rect fill="#FFF" fill-rule="nonzero" width="44" height="44" rx="22"/><path d="M26.706 10A8.293 8.293 0 0135 18.294v9.411A8.294 8.294 0 0126.706 36h-9.412A8.294 8.294 0 019 27.705v-9.411A8.293 8.293 0 0117.294 10zm0 2.47h-9.412a5.823 5.823 0 00-5.823 5.824v9.411a5.824 5.824 0 005.823 5.824h9.412a5.824 5.824 0 005.823-5.824v-9.411a5.823 5.823 0 00-5.823-5.823zM22 16a7.001 7.001 0 11-.002 14.002A7.001 7.001 0 0122 16zm0 2.43a4.57 4.57 0 100 9.14 4.57 4.57 0 000-9.14zM28.5 15a1.501 1.501 0 11-.002 3.002A1.501 1.501 0 0128.5 15z" fill="#291660"/></g></svg>