<svg width="46" height="46" viewBox="0 0 46 46" xmlns="http://www.w3.org/2000/svg"><path d="M23 0c12.703 0 23 10.297 23 23S35.703 46 23 46 0 35.703 0 23 10.297 0 23 0zm3.204 20.185c-.536.368-.996.85-1.495 1.284v-1.843h-5.075v15.252h5.07v-8.64c0-.222.008-.444.028-.663.143-1.476 1.782-2.562 3.193-2.12 1.18.37 1.868 1.33 1.87 2.631l.002 4.2v4.597h5.085c.005-.1.012-.164.012-.23 0-3.142.014-6.285-.005-9.427-.013-2.074-.917-3.717-2.602-4.895-1.819-1.27-4.073-1.526-6.083-.146zm-10.026-.555h-5.05v15.252h5.05V19.63zm-2.533-9.04c-1.68.005-3.071 1.403-3.056 3.071a3.06 3.06 0 003.046 3.04 3.043 3.043 0 003.065-3.045c.003-1.688-1.374-3.07-3.055-3.066z" fill="#FFF"/></svg>