<svg width="46" height="46" viewBox="0 0 46 46" xmlns="http://www.w3.org/2000/svg"><g fill="none" fill-rule="evenodd"><rect fill="#FFF" fill-rule="nonzero" width="46" height="46" rx="23"/><path d="M21 19v9l7-4.5-7-4.5zm13.723-5.345c1.38.328 2.242 1.312 2.587 2.46.642 2.142.687 6.284.69 6.827v.118c-.003.541-.036 4.684-.518 6.827-.345 1.31-1.38 2.13-2.585 2.458-2.298.624-10.834.654-11.66.655h-.13c-.842-.001-9.527-.031-11.66-.655-1.379-.328-2.24-1.312-2.586-2.458-.832-2.22-.86-6.584-.861-6.872v-.014s0-4.592.69-6.886c.345-1.312 1.378-2.132 2.586-2.46 2.077-.606 10.376-.652 11.578-.655h.29c1.204.003 9.501.049 11.579.655z" fill="#291660"/></g></svg>