<svg width="40" height="40" viewBox="0 0 40 40" xmlns="http://www.w3.org/2000/svg"><g fill="none" fill-rule="evenodd"><path d="M0 0h40v40H0z"/><path d="M17 13v-1.086C17 10.305 18.343 9 20 9s3 1.305 3 2.914V13" stroke="#333" stroke-linecap="round" stroke-linejoin="round"/><path d="M22.963 29h3.852C27.47 29 28 28.466 28 27.807l-.593-13.614c0-.66-.53-1.193-1.185-1.193H13.778c-.655 0-1.185.534-1.185 1.193L12 27.807c0 .66.53 1.193 1.185 1.193h9.778z" stroke="#333" stroke-linecap="round" stroke-linejoin="round"/><path d="M19.626 24.3h1.263v-5.053h-1.263V24.3zm.569-6.61a.692.692 0 00.494-.19.638.638 0 00.2-.484.708.708 0 00-.2-.505.655.655 0 00-.494-.211.655.655 0 00-.495.21.708.708 0 00-.2.506c0 .196.067.358.2.484s.298.19.495.19z" fill="#000" fill-rule="nonzero"/></g></svg>