<svg width="125" height="20" viewBox="0 0 125 20" fill="none" xmlns="http://www.w3.org/2000/svg"><path d="M44.248 19.22H38.52V.967h5.728V19.22zM6.812.775C4.14 1.544 1.85 1.929 1.657 5.964h6.494S7.387 2.89 15.407 2.89s9.17 1.343 8.978 2.687c-.262 1.841-2.19 3.847-14.897 3.463 0 0-9.18.093-9.363 4.61 0 0-.382 2.307.19 3.267.571.96 1.534 3.076 13.374 3.076 0 0 5.348.194 8.399-1.728 3.051-1.923 2.865-2.691 2.865-2.691s-.764 4.036 3.442 4.036h4.776l.381-2.493s-3.247.192-3.247-2.691V6.349s.763-3.843-6.493-5.382C16.555-.57 9.492.007 6.81.775h.001zm11.65 15.945c-6.302.97-11.077.97-11.841-1.918 0 0-1.527-3.65 5.158-4.035 6.685-.385 10.696-.191 12.223-1.537 0 0 .764 6.532-5.54 7.49zM98.253.775c-2.667.769-4.957 1.154-5.15 5.189h6.494s-.764-3.073 7.257-3.073c8.02 0 9.168 1.343 8.977 2.687-.26 1.841-2.189 3.847-14.898 3.463 0 0-9.18.093-9.363 4.61 0 0-.267 2.248.19 3.267.526 1.15 1.536 3.076 13.378 3.076 0 0 5.347.194 8.399-1.728 3.053-1.923 2.866-2.691 2.866-2.691s-.765 4.036 3.442 4.036h4.774l.381-2.493s-3.247.192-3.247-2.691V6.349s.766-3.843-6.495-5.382c-7.26-1.538-14.32-.96-16.998-.192h-.007zm11.659 15.945c-6.302.97-11.078.97-11.842-1.918 0 0-1.528-3.65 5.158-4.035 6.686-.385 10.695-.191 12.223-1.537 0 0 .762 6.532-5.539 7.49zm-40.88 2.859h9.693c3.82 0 4.504-.831 5.645-1.99 1.141-1.16 1.037-3.071 1.037-3.071s0-7.784.191-9.513c.192-1.729 2.674-1.73 2.674-1.73V.967l-5.939.042s-2.393 0-2.393 3.074c0 3.073.016 9.374.016 9.374s.302 3.073-3.136 3.263c-3.438.19-4.965.194-4.965.194V.967h-5.64v15.947s-1.528 0-4.966-.194-3.138-3.263-3.138-3.263.058-6.341.058-9.419C58.169.961 55.69.965 55.69.965h-5.904v2.307s2.478 0 2.672 1.73c.195 1.73.192 9.513.192 9.513s-.109 1.92 1.035 3.07c1.145 1.152 1.83 1.991 5.646 1.991l9.7.003z" fill="#E30613"/></svg>