<svg width="400" height="325" viewBox="0 0 400 325" xmlns="http://www.w3.org/2000/svg" xmlns:xlink="http://www.w3.org/1999/xlink"><defs><path id="a" d="M0 0h392v243H0z"/><path id="c" d="M0 0h229.743v47.757H0z"/></defs><g fill="none" fill-rule="evenodd"><mask id="b" fill="#fff"><use xlink:href="#a"/></mask><path d="M381.639 184.874c5.85-5.621 9.708-12.964 10.23-22.849 1.852-35.05-16.371-61.76-31.37-92.533C349.35 46.62 331.776 22.53 309.867 8.224c-15.899-10.381-36.658-8.57-54.725-7.048-22.424 1.887-44.584 8.634-66.87 12.478-40.968 7.065-83.989 20.3-123.656 32.734-21.64 6.783-56.834 15.647-62.83 39.691-3.233 12.965-1.35 25.35-.003 38.34 3.271 31.57-9.696 102.1 34.682 114.209 24.516 6.69 56.865 4.76 81.787.489 71.79-12.303 144.813-17.735 215.675-34.717 16.766-4.018 36.138-8.404 47.712-19.526" fill="#97B9E0" mask="url(#b)"/><path d="M394.875 217.682c-11.827 20.423-36.311 33.806-56.042 45.733-25.622 15.489-52.941 28.028-80.711 39.222-27.87 11.234-59.04 23.386-89.615 22.295-31.273-1.117-54.053-20.836-79.915-35.52-16.037-9.105-31.946-18.251-47.104-28.756-11.06-7.663-37.913-20.63-13.63-33.389 16.46-8.647 39.07-6.743 57.047-9.982 58.46-10.532 117.042-20.897 175.735-30.063 26.27-4.103 52.684-6.551 79.018-10.025 22.117-2.917 63.83-8.414 60.109 26.189-.543 5.048-2.293 9.809-4.892 14.296" fill="#CCE2FB"/><path d="M70.629 142.718c.785-.729 16.124-4.561 24.807-6.067 5.933-1.03 14.754-2.656 15.646-1.88.234.203.875 1.127 1.694 2.378-13.454 2.973-27.542 6.203-40.204 9.334-1.307-1.95-2.212-3.516-1.943-3.765M170.417 125s-23.29 4.641-50.897 10.668c-2.651-3.773-5.174-7.355-5.497-7.787-.833-1.117-27.144 3.65-38.095 6.39-7.772 1.945-15.083 3.601-14.858 5.872.08.804 2.143 4.291 4.554 8.086-20.046 5.126-35.077 9.796-35.6 12.382-.894 4.424 22.877 54.53 26.547 59.134 1.028 1.29 131.123 50.315 134.788 45.984C214.307 238.62 170.417 125 170.417 125" fill-opacity=".2" fill="#141414"/><path d="M193.156 51.773l-25.122 1.855-21.412 5.059 1.349 6.576s39.452-4.89 42.319-5.059c2.866-.168 5.058-6.407 5.058-6.407l-2.192-2.024z" fill="#678BBE"/><path fill="#506C9E" d="M191.976 53.122l-3.13 7.198 4.816 8.99 7.25-1.855-3.54-8.6zm-48.895 3.373s-2.529-1.35-3.203.169c-.675 1.517-2.066 6.028-1.77 7.04.235.809 6.322 12.52 6.322 12.52l8.093-2.024-4.047-10.286-5.395-7.42z"/><path d="M205.632 66.275s-10.23-16.997-10.874-18c-.76-1.18-27.596 1.707-38.821 3.667-7.966 1.391-16.902 3.204-16.06 4.721.844 1.518 9.611 17.368 9.611 18.211s8.093-1.517 8.093-1.517-8.43-12.647-7.587-13.321c.843-.675 16.565-3.415 25.416-4.3 6.05-.605 15.048-1.602 15.891-.759.843.843 6.913 12.647 6.913 12.647l7.418-1.35z" fill="#89B5DF"/><path d="M179.33 87.184l-92.056 17.873 23.019 90.488s152.917-38.637 158.987-43.021c6.07-4.384-9.358-46.455-9.358-47.804 0-1.349-9.778-28.497-11.128-28.497-1.348 0-77.556 6.576-77.556 6.576l8.093 4.385z" fill="#2F6DA3"/><path d="M246.856 79.511c.44 1.762 23.351 72.085 23.351 72.085s1.18.337 2.53-.674c1.348-1.012-1.35-48.563-2.024-56.32-.675-7.756-1.686-36.084-3.71-36.084-2.023 0-20.4 19.982-20.147 20.993" fill="#2A6195"/><path d="M267.004 58.518l-20.106 21.099s-151.194 22.405-158.612 32.86c-7.42 10.454-5.396-19.223-3.372-22.258 2.023-3.035 15.848-7.42 26.976-9.106 11.128-1.686 162.532-24.955 155.114-22.595" fill="#255588"/><path d="M84.576 86.846s-.506-1.517 2.024-3.878c2.985-2.787 180.74-28.307 182.09-27.148 1.168 1.005 2.023 10.118 2.36 14.502.337 4.384 5.48 80.684 4.805 81.696-.674 1.011-2.107 4.131-3.12-.253-1.01-4.384-4.382-92.235-8.092-91.223-3.71 1.011-172.227 24.955-171.552 27.316.674 2.36 19.52 103.787 19.52 106.485 0 .633-1.77 1.223-1.77 1.223S84.575 89.207 84.575 86.846" fill="#4A94C8"/><path d="M70.076 109.104c1.35 2.024 38.128 87.317 39.5 87.094 1.56-.253 1.72-.142 1.75-.674.084-1.518-23.378-105.305-25.064-111.713-.607-2.306-17.534 23.27-16.186 25.293" fill="#1F4E80"/><path d="M115.147 193.294c.334.78 1.345 1.589 2.893 2.419 13.515 7.193 66.015 21.311 66.015 21.311l152.662-45.618-63.984-20.487-1.619.313-2.498.475-153.226 41.456-.243.131z" fill="#385080"/><path d="M281.84 168.29a7.082 7.082 0 107.082-7.082 7.082 7.082 0 00-7.081 7.082m-42.32 8.6h32.035l.674-17.369-31.023-.168z" fill="#5440D4"/><path fill="#4A94C8" d="M111.325 195.355l8.19-.401-1.172.738 157.09-43.256-4.319-1.204-.486-.142-2.013.618-152.295 40.95-3.807 1.04z"/><path d="M139.086 203.89l27.48 10.272 7.22-19.317-24.638-9.21c-1.57-.587-3.404.442-4.098 2.297l-5.964 15.958z" fill="#02ACCF"/><path d="M204.368 193.203a8.979 8.979 0 1017.956 0 8.978 8.978 0 10-17.956 0" fill="#FA9913"/><path d="M166.187 200.442c.71 4.597 5.045 7.695 9.682 6.92l25.911-4.334c4.637-.775 7.822-5.13 7.112-9.728s-5.044-7.696-9.682-6.92l-25.91 4.333c-4.638.776-7.822 5.131-7.113 9.729" fill="#B73FA6"/><path d="M332.885 171.957c-10.38-3.901-49.829-15.38-56.777-17.326-8.43-2.36-3.372-3.71-3.372-3.71s46.503 13.588 63.52 18.718c-1.257.669-2.06 1.757-3.371 2.318" fill="#4A94C8"/><path d="M267.72 191.686c3.845-4.205-.526-12.657-6.447-10.622-4.247 1.46-8.516 3.464-12.477 5.609-2.986 1.616-5.87 3.54-7.761 6.408-1.047 1.59-2.843 3.839-2.5 5.868 6.81 2.345 14.559-2.247 20.928-4.397 2.574-.868 6.33-.76 8.257-2.866" fill="#2C67AA"/><path d="M164.216 193.072s-2.008.074-.967 2.306c1.042 2.231.372 1.264 1.265 2.454.892 1.19 14.801 7.514 15.099 6.026.297-1.488-1.562-7.365-1.562-7.365l-5.355-1.934-8.48-1.487z" fill="#D1B4E7"/><path d="M193.277 169.446s.744 5.703.595 7.042c-.149 1.339-13.144 27.593-14.185 27.444-1.041-.149-2.231-4.463-1.636-7.439.595-2.975 12.102-27.692 15.226-27.047" fill="#D1B4E7"/><path d="M186.732 165.677c-.485-.346-6.943-4.166-8.133-2.975-1.19 1.19-6.499 11.326-9.87 17.476-3.372 6.149-6.942 14.084-5.356 14.48 1.587.397 9.72 3.571 11.703 4.563 1.983.992 2.777 2.182 4.363-.595 1.587-2.777 14.631-27.791 13.838-29.18-.794-1.389-5.157-2.777-6.545-3.769" fill="#FAECFD"/><path d="M174.284 177.7c0 .857.215 1.667.59 2.375.106.214.231.416.368.607a5.217 5.217 0 004.249 2.172c2.874 0 5.206-2.31 5.206-5.154 0-2.85-2.332-5.16-5.206-5.16-2.88 0-5.207 2.31-5.207 5.16" fill="#A6CCF5"/><path d="M174.873 180.075c.107.214.232.416.37.607l3.629-2.19-.375-.667-3.624 2.25zm3.997 7.975c0 .473.399.856.892.856.492 0 .892-.383.892-.856 0-.472-.4-.855-.892-.855-.493 0-.893.383-.893.855m-3.199-1.227c0 .473.4.856.893.856s.893-.383.893-.856c0-.472-.4-.855-.893-.855s-.892.383-.892.855m-3.124-1.339c0 .473.4.856.892.856.493 0 .893-.383.893-.856 0-.472-.4-.855-.893-.855s-.892.383-.892.855m-3.347-1.19c0 .472.4.855.892.855.493 0 .893-.383.893-.855 0-.473-.4-.856-.893-.856s-.892.383-.892.856m7.586 8.146c0 .472.4.855.893.855s.893-.383.893-.856c0-.472-.4-.855-.893-.855s-.893.383-.893.855m-3.198-1.227c0 .472.4.855.893.855s.892-.383.892-.855-.4-.856-.892-.856c-.493 0-.893.384-.893.856m-3.124-1.339c0 .472.4.855.893.855s.892-.383.892-.855c0-.473-.4-.856-.892-.856-.493 0-.893.383-.893.856m-3.347-1.19c0 .472.4.855.893.855.492 0 .892-.383.892-.855 0-.473-.4-.856-.892-.856-.493 0-.893.383-.893.856" fill="#83A4E6"/><path d="M142.149 193.566l-12.756-7.856-2.937 1.41 3.926 2.62s1.2-.647 2.285.283c1.181 1.014.256 2.738.256 2.738l2.908 2.276 4.201.547 2.117-2.018zm-7.661 7.76l-9.235-11.387 1.1-2.684 3.284 3.26s-.739 1.278.42 2.352c1.172 1.087 2.803.083 2.803.083l2.908 2.34.946 4.252-2.226 1.784z" fill="#8DC1F1"/><path d="M148.198 222.463c1.722.118 4.151-.668 5.162-1.865.55-.644.683-1.416.07-2.22-1.76-2.294-12.956-17.49-14.56-20.855a3.474 3.474 0 00-.731-1.058 18.761 18.761 0 00-.371-.326c-.01-.002-.017-.015-.027-.018-.699-.502-1.516-.585-2.29-.341-1.31.398-2.502 1.754-2.82 3.735 0 0 12.897 22.762 15.567 22.948" fill="#DC518C"/><path d="M165.46 203.199a5.81 5.81 0 00-.213-1.259c-.738-2.563-25.693-10.416-25.693-10.416-.802.31-1.446.727-1.924 1.192-1.755 1.712-1.381 4.151 1.455 4.826 3.624.865 20.654 9.13 23.267 10.372 2.217 1.047 3.29-2.162 3.108-4.715" fill="#DC518C"/><path d="M242.075 172.825l31.883-48.124-9.66 50.54-22.223-2.416zm-15.564 6.942c.227.513.7.87 1.247.94l41.875 5.403c1.331.172 2.564-.742 2.814-2.086l18.118-97.372a1.14 1.14 0 00-.668-1.26 1.102 1.102 0 00-1.346.409l-61.903 92.391a1.642 1.642 0 00-.137 1.575z" fill="#FAD698"/><path d="M251.022 171.427s6.845-8.328 6.78-8.413c-.898-1.151-2.752-3.707-2.752-3.707l-1.834 1.838 1.319 1.693-1.701 3.23-1.916-2.634-2.988 2.51 3.092 5.483z" fill="#BFD6F8"/><path d="M262.034 152.374l-7.52 7.558.026.034 2.364 2.882.898.16s2.986-2.272 4.008-4.341c1.015-2.065.976-5.845.976-5.845l-.37-.223-.244-.147-.132-.071-.006-.007z" fill="#BFD6F8"/><path d="M243.062 163.357s8.414-6.739 8.498-6.672c1.14.912 3.67 2.8 3.67 2.8l-1.86 1.81-1.676-1.34-3.252 1.659 2.498 1.86-2.8 2.623-5.078-2.74z" fill="#BFD6F8"/><path d="M251.558 156.684l.15.905 2.832 2.377.06.05 3.25-3.15 4.401-4.27-.08-.144-.08-.132-.276-.493s-3.782-.09-5.857.906c-2.076.996-4.4 3.95-4.4 3.95" fill="#BFD6F8"/><path d="M227.317 166.887c12.333-5.086 20.46-7.361 22.455-5.207.767.828 1.242 1.387 1.384 1.872.4.24.861.67 1.479 1.283 2.084 2.07-.471 10.113-5.98 22.265-5.509 12.152-13.726 15.647-15.56 12.865-.715-1.085.453-3.684 4.316-5.826 4.195-2.327 5.431-4.929 9-13.877 3.313-8.308 3.878-12.731 3.124-13.52-.68-.729-5.01-.06-13.24 2.897-9.066 3.257-11.089 2.787-14.078 8.346-2.093 3.891-5.235 4.762-6.294 4.01-2.717-1.93 1.06-10.021 13.394-15.108" fill="#E93D99"/><path d="M255.024 157.586a1.34 1.34 0 00-.233 1.878 1.34 1.34 0 001.878.233 1.34 1.34 0 00.232-1.878 1.34 1.34 0 00-1.877-.233m-.158-.203a1.597 1.597 0 011.96 2.517 1.597 1.597 0 01-2.238-.278 1.598 1.598 0 01.278-2.24" fill="#728FD5"/><path d="M256.862 157.54l5.178-5.16.05-.06.082.132.244.147-5.431 5.069c-.04-.043-.08-.089-.123-.128" fill="#728FD5"/><path d="M254.964 157.538a1.422 1.422 0 101.748 2.244 1.422 1.422 0 00-1.748-2.244" fill="#8DABE8"/><path d="M205.139 179.2c-1.496 2.605-1.894 5.184-.89 5.76 1.005.577 3.03-1.067 4.526-3.673 1.496-2.605 1.894-5.184.89-5.76-1.004-.577-3.03 1.067-4.526 3.673" fill="#20794B"/><path d="M194.674 205.639a.758.758 0 00.498-.186c1.229-1.069 1.71-2.126 1.43-3.143-.625-2.273-4.79-3.205-9.004-3.965-.665-.12-1.24-.223-1.477-.295-2.233-.675-4.132-2.852-4.617-5.293-.403-2.028.253-3.864 1.85-5.172 4.209-3.45 10.808-1.506 15.176 1.204 6.96 4.317 16.803 3.47 20.253-1.743 1.274-1.923 1.616-4.258 1.017-6.941-1.82-8.152-11.761-17.246-16.43-20.086-5.59-3.4-11.185-5.797-17.61-7.546-1.444-.393-3.119-.627-4.892-.876-4.245-.594-9.058-1.268-11.129-4.405-.814-1.234-.965-2.836-1.124-4.532-.234-2.489-.5-5.31-3.246-6.837-1.79-.993-4.161-1.018-6.678-.072-3.329 1.252-6.315 3.97-7.262 6.61a8.3 8.3 0 002.692 9.737.756.756 0 001.053-.203.757.757 0 00-.202-1.053c-.178-.123-3.964-2.812-2.114-7.968.794-2.215 3.472-4.613 6.367-5.702 2.095-.79 4.015-.796 5.406-.022 2.048 1.138 2.245 3.23 2.473 5.652.17 1.807.345 3.675 1.368 5.226 2.449 3.709 7.622 4.433 12.185 5.073 1.724.24 3.352.469 4.704.836 6.285 1.711 11.757 4.056 17.22 7.378 4.763 2.898 14.095 11.765 15.738 19.12.505 2.265.236 4.207-.8 5.773-2.979 4.499-11.99 5.136-18.188 1.292-1.736-1.077-10.712-6.19-16.94-1.088-2.02 1.654-2.886 4.075-2.376 6.64.59 2.968 2.92 5.62 5.668 6.45.32.097.876.198 1.646.336 2.02.365 7.386 1.333 7.81 2.875.146.532-.54 1.227-.963 1.594a.76.76 0 00.498 1.332" fill="#B1D1F7"/><path d="M190.587 133.004s-2.86.73-1.163 2.174c1.697 1.444 4.322 3.1 4.322 3.1s4.529-1.244 5.707-1.057c1.178.187-2.854-4.147-2.854-4.147l-6.012-.07z" fill="#8DABE7"/><path d="M199.64 138.214c-.137.643-7.793 60.376-6.614 62.823 1.18 2.447 6.897 2.55 7.763 1.155.867-1.395 8.267-64.248 7.151-65.27-1.116-1.021-7.59-2.024-8.3 1.292" fill="#BD926D"/><path d="M215.89 129.343c-6.093 2.447-4.2-3.034-5.155-3.371-3.354-1.184-8.485-1.11-9.956.767-.628.802.537 1.525-1.084 3.046-.627.589-5.706 1.767-9.054 1.605-2.697-.13-2.084 1.76-1.838 2.792.246 1.032 5.455.879 7.597 1.123 1.578.18 2.947 4.35 2.947 4.35s1.475-2.785 4.6-2.56c2.938.211 4.177 2.571 4.177 2.571l3.085-2.203s7.575 5.185 9.425 3.9c1.503-1.045 3.413-4.694 3.472-7.978.048-2.695-.605-4.136-1.197-5.38-.768-1.613-2.056-.656-7.02 1.338" fill="#A2C1F4"/><path d="M217.854 134.077c-.556 3.361.12 6.264 1.508 6.484 1.39.22 2.965-2.327 3.52-5.688.556-3.36-.12-6.264-1.508-6.484-1.389-.22-2.965 2.327-3.52 5.688" fill="#BFDCFD"/><path d="M163.145 154.252s-6.407-3.583-7.587-4.173c-.723-.362-2.403 1.517-1.644 2.782.759 1.264 7.587 4.932 7.587 4.932s3.414-2.403 1.644-3.541" fill="#6E8ED2"/><path d="M209.679 175.54l-44.511-23.944s-3.201.473-4.615 3.478c-1.518 3.225-.443 5.628-.443 5.628l44.258 24.28s0-2.528 1.39-5.437c1.441-3.012 3.92-4.005 3.92-4.005" fill="#36A267"/><path d="M238.123 193.802l-29.302-15.775s-1.43.269-2.146 1.878c-.698 1.572-.536 2.951-.536 2.951l29.168 15.954s0-1.341.737-2.884c.764-1.597 2.079-2.124 2.079-2.124" fill="#AFD1F7"/><path d="M157.428 209.928s-3.548-6.75 13.487-9.648c17.035-2.898 44.578-8.179 46.67-3.317 2.092 4.86 6.946 9.399-6.357 14.99-13.303 5.59-26.557 9.488-33.154 6.595-6.596-2.893-18.98-7.044-20.646-8.62" fill="#8289DF"/><path fill="#E0D6E1" d="M185.394 200.17l5.117 8.55 1.449-.866-5.118-8.55z"/><path fill="#F4D9B3" d="M186.092 204.702l14.5 24.229 4.42-2.647-14.5-24.228z"/><path fill="#F4D9B3" d="M195.45 221.986l4.455 7.445 5.843-3.497-4.456-7.445z"/><path fill="#F4D9B3" d="M197.573 228.13l1.567 2.617 8.067-4.829-1.567-2.618z"/><path d="M194.216 213.215a.412.412 0 00-.14.567l2.88 4.76a.412.412 0 10.706-.426l-2.88-4.761a.412.412 0 00-.566-.14m-1.878-3.218c-.194.118-.321.265-.282.33l.944 1.56c.039.065.228.021.423-.097.195-.118.321-.265.283-.329l-.945-1.562c-.039-.064-.228-.02-.423.098m-1.804-3.033c-.195.118-.321.265-.283.329l.945 1.562c.039.064.228.02.423-.098.194-.118.321-.265.282-.329l-.944-1.562c-.039-.064-.228-.02-.423.098" fill="#918CA6"/><path d="M123.801 241c2.023.675 65.013 25.911 66.742 25.932 3.647.045-3.836-50.143-3.836-50.143s-79.651-26.872-77.273-20.712c.564 1.462 5.353 16.437 14.367 44.923z" fill="#1F4E80"/><path fill="#CCDCF7" d="M278.373 160.493l27.822-17.693-.964-5.973 6.597-7.369 6.748.076 2.037 3.53-6.677.46-3.48 6.55 3.452 5.626 7.657-.48 3.259-5.918 2.099 3.291-2.228 6.237-9.188 3.206-6.015-3.51-27.984 17.829z"/><path d="M219.234 192.363a2.292 2.292 0 00-.7 3.167l6.79 10.616a2.291 2.291 0 003.162.698l59.254-37.743a2.291 2.291 0 00.7-3.167l-6.791-10.616a2.29 2.29 0 00-3.16-.698l-59.255 37.743z" fill="#897375"/><path fill="#5D615A" d="M271.303 175.16l-5.48-2.275.675 19.054 5.437-1.35 1.761-8.042z"/><path d="M305.445 170.735l24.279-5.312s-.38 4.932-.76 7.588c-.379 2.656-1.517 1.897-2.781 2.276-1.265.38-54.248 15.302-54.248 15.302l-.632-13.405s33.13-5.69 34.142-6.45" fill="#888977"/><path d="M265.864 172.944c.324.647 4.683 6.394 5.695 6.394 1.396 0 12.98-2.57 25.452-5.504a92.333 92.333 0 001.619-.385c15.164-3.571 31.026-7.547 31.097-8.023.212-1.527-6.353-3.257-9.358-5.058-1.264-.759-14.668 2.276-20.99 4.553-2.894 1.042-10.228 2.65-17.299 4.158-3.035.647-6.019 1.275-8.589 1.841-.07.02-.141.03-.192.04l-.152.03a.737.737 0 00-.09.021c-4.3.951-7.314 1.68-7.193 1.933" fill="#BEBFB3"/><path fill="#AECFF6" d="M226.382 168.255l2.885.94 13.11-40.218-.186-1.126 2.284-5.307-2.885-.941-1.203 5.66-.894.773z"/><path d="M206.981 209.838a2.53 2.53 0 001.62 3.188l8.817 2.875a2.529 2.529 0 003.189-1.62l10.251-31.45a6.103 6.103 0 00.29-2.246l-.371-6.424a1.691 1.691 0 01.472-1.273l3.138-3.25a1.05 1.05 0 00-.43-1.728l-10.531-3.434a1.05 1.05 0 00-1.373 1.082l.348 4.366c.032.4-.079.798-.313 1.123l-3.942 5.475a6.11 6.11 0 00-.85 1.676l-10.315 31.64z" fill="#00B1DE"/><path d="M142.168 163.058l-4.582-3.19a.394.394 0 00-.588.475l2.147 5.167 3.023-2.452z" fill="#90B0E7"/><path d="M161.004 193.199l4.756-4.018-23.345-26.434s-1.096-.937-2.629.387c-1.806 1.56-.812 2.656-.812 2.656l22.03 27.409z" fill="#BFD6F8"/><path d="M156.144 192.753c1.034 1.224 4.109.328 6.867-2.002 2.758-2.33 4.156-5.212 3.122-6.436-1.035-1.225-4.109-.328-6.867 2.002-2.758 2.33-4.156 5.212-3.122 6.436" fill="#1D6DE7"/><path d="M157.068 193.603c1.034 1.224 4.055.373 6.747-1.9 2.691-2.275 4.035-5.11 3-6.335-1.033-1.225-4.054-.374-6.746 1.9-2.691 2.274-4.035 5.11-3 6.335" fill="#1D53C7"/><path d="M183.223 215.372c-2.444-.258-4.813-.929-7.196-1.521l-17.943-21.243 7.582-6.405 23.762 28.133c-2.034.702-4.231 1.243-6.205 1.036" fill="#1D6DE7"/><path d="M158.151 192.688c.805.952 3.154.29 5.247-1.479 2.094-1.768 3.14-3.974 2.335-4.926-.805-.953-3.154-.29-5.247 1.478-2.094 1.768-3.14 3.974-2.335 4.927" fill="#1D6DE7"/><path d="M288.103 244.263c-.01.343.196.628.458.634l5.625.144c.262.007.481-.266.49-.61.009-.344-.196-.628-.458-.635l-5.625-.143c-.262-.007-.481.266-.49.61m-1.297 3.467c-.024.343.168.636.43.654l5.613.394c.261.018.493-.245.517-.588.024-.343-.168-.636-.43-.654l-5.613-.394c-.261-.018-.493.245-.517.588" fill="#C0D6F7"/><path d="M293.558 248.194c.02-1.696 1.015-3.417 2.319-4.49.928-.763 1.517-2.444 2.192-.885.46 1.067 1.538 2.087 1.39 2.804-.219 1.065-2.602 6.408-3.24 6.718-.38.185-2.674-2.952-2.66-4.147" fill="#82A1DF"/><path d="M291.162 248.504c-.668-.095-1.258-.697-1.92-.57-.612.117-1.116 1.578-1.116 1.878 0 .177.18.378.487.992.304.605.644 1.311.778 1.332 1.027.158 1.386.144 2.15.205 1.173.095 1.928.048 3.35.095.62.02 1.407-.047 1.344-.11-.49-.49-.97-1.18-1.686-2.361-.835-1.376-1.882-1.248-3.387-1.461" fill="#708CD1"/><path d="M294.654 249.986c-.084.38-4.946-.266-6.512-.174-.269.016 1.263-2.815 2.15-4.727 1.011-2.181 1.267-2.548 1.422-2.592.443-.127 5.788-.524 5.975-.243.085.127-.732 2.29-1.123 3.238-.671 1.628-1.607 3.126-1.912 4.498" fill="#A7C5F6"/><path fill="#BFD6F8" d="M233.376 190.143l26.804-4.198-.05 5.987-26.275.61-.18-.915-.113-.573z"/><path d="M295.215 199.52c.605 2.955-6.89 5.974-18.187 1.721-11.298-4.253-18.078-7.767-18.067-10.424.01-2.658.191-2.901 3.208-2.493 3.016.409 2.348 2.863 11.263 6.698 8.008 3.444 10.177 3.819 15.587 1.988 3.786-1.281 5.96 1.36 6.196 2.51" fill="#CB2C24"/><path d="M294.712 177.035c-.456-2.981-7.088-5.736-18.235-1.101-11.147 4.635-17.803 8.377-17.703 11.032.101 2.656.29 2.894 3.292 2.383 3-.511 2.256-3.137 11.035-7.273 7.886-3.715 9.408-4.516 14.877-2.87 3.828 1.151 6.997-.45 6.734-2.171" fill="#CB2C24"/><path d="M252.086 189.72l-18.524 1.334.112.573 18.413-1.868-.001-.04" fill="#5771BC"/><path d="M252.5 190.345a1.115 1.115 0 001.656-1.493 1.116 1.116 0 00-1.575-.081 1.116 1.116 0 00-.08 1.574m1.814-1.637a1.33 1.33 0 01-.097 1.877 1.33 1.33 0 01-1.78-1.973 1.33 1.33 0 011.877.096" fill="#728FD5"/><path d="M252.514 188.707a1.229 1.229 0 111.647 1.825 1.229 1.229 0 01-1.647-1.825" fill="#8DABE8"/><g transform="translate(111.257 169.2)"><mask id="d" fill="#fff"><use xlink:href="#c"/></mask><path d="M75.125 47.566a5.238 5.238 0 01-2.47.08C59.357 44.853 4.933 25.546 0 25.998c.775-1.534 3.656-2.171 4.136-2.034 2.27.648 67.226 20.654 69.923 20.316 2.698-.337 143.06-40.637 146.768-41.311.506-.092-.016-.443-1.305-.982 1.312-.617 2.59-1.304 3.869-1.987 2.773.84 4.642 1.42 5.192 1.62 1.242.451 1.328 1.159.99 1.728-.168.232-1.138.422-1.138.422-4.567 1.152-133.688 38.359-153.31 43.796" fill="#4A94C8" mask="url(#d)"/></g><path d="M340.936 172.168s-5.143 49.574-8.852 51.26c-3.71 1.686-140.951 45.528-141.626 43.504-.674-2.023-5.7-47.35-6.124-49.88-.02-.133.2-.149.752-.298 13.68-3.723 151.068-43.938 155.85-44.586" fill="#2A6195"/><path d="M273.491 170.92c1.609-.304 7.365-1.254 12.898-.222 5.837 1.092 9.864 2.802 10.622 3.136a92.34 92.34 0 001.619-.385c-1.264-.637-6.575-3.187-13.333-4.067a42.419 42.419 0 00-3.217-.303c-3.035.647-6.02 1.274-8.589 1.841" fill="#A1A387"/><path d="M273.056 170.667a.664.664 0 000 .344c.516-.111 1.053-.233 1.609-.354.89-1.78 5.048-2.62 10.318-2.195a37.98 37.98 0 013.227.394c3.4.567 7.102 2.337 10.056 4.684 1.305 1.032 2.458 2.165 3.378 3.36 4.492 5.827 5.049 12.403 1.488 17.603-1.892 2.772-5.15 5.747-8.59 8.903-6.2 5.686-12.614 11.564-13.291 17.928-.608 5.746.606 10.026 3.58 12.717 3.693 3.339 10.036 4.098 18.827 2.257 12.959-2.712 23.924-2.297 27.293 1.032.82.809 1.113 1.75.89 2.873-1.102 5.615-13.414 9.874-34.04 6.697a.756.756 0 00-.86.638.755.755 0 00.637.86c4.876.758 9.448 1.113 13.596 1.113 12.453 0 21.021-3.268 22.164-9.015.314-1.619-.141-3.086-1.315-4.25-3.773-3.732-15.022-4.289-28.669-1.436-8.305 1.74-14.193 1.103-17.5-1.892-2.6-2.357-3.643-6.202-3.086-11.442.607-5.787 6.808-11.463 12.797-16.957 3.51-3.217 6.828-6.252 8.821-9.176 3.945-5.767 3.369-13.01-1.548-19.374a19.725 19.725 0 00-2.741-2.874c-3.075-2.68-7.092-4.785-10.845-5.594a11.755 11.755 0 00-.799-.152c-6.768-1.133-14.476-.577-15.397 3.308" fill="#B6CDF4"/></g></svg>