<svg width="48" height="12" viewBox="0 0 48 12" fill="none" xmlns="http://www.w3.org/2000/svg"><path fill-rule="evenodd" clip-rule="evenodd" d="M14.533 0c2.255 0 3.661.93 4.013 2.022.22.694.131 1.55 0 1.993-.22.738-1.01 1.564-1.948 1.564.937 0 2.109.65 2.475 1.683.22.605.278 1.461.014 2.317C18.604 11.13 17.096 12 14.533 12s-4.071-.87-4.554-2.42c-.264-.857-.205-1.698.014-2.318.366-1.033 1.538-1.683 2.475-1.683-.937 0-1.713-.989-1.918-1.564-.162-.443-.25-1.314-.03-1.993C10.872.93 12.073 0 14.533 0zm9.933 3.542c1.67 0 2.855.488 3.602 1.27.718.753 1.055 1.8 1.055 2.952 0 1.18-.352 2.17-1.025 2.893-.806.856-2.05 1.328-3.662 1.328-1.596 0-2.855-.442-3.675-1.313-.645-.709-1.01-1.668-1.01-2.908 0-1.107.336-2.126 1.039-2.878.761-.827 1.962-1.344 3.676-1.344zm18.987 0c1.845 0 3.104.68 3.822 1.727.6.886.82 2.052.688 3.277H41.14c0 .37.16.65.44.96.336.369.995.605 1.874.605.659 0 1.142-.118 1.479-.266.424-.192.63-.458.673-.635h2.3a3.322 3.322 0 01-1.465 2.037c-.703.458-1.684.738-2.987.738-1.787 0-3.237-.531-4.013-1.771-.395-.635-.615-1.446-.615-2.465 0-.93.249-1.756.703-2.406.776-1.136 2.167-1.8 3.925-1.8zM2.343.691v4.195c.322-.68 1.48-1.329 2.944-1.329 1.332 0 2.314.428 2.987 1.225.6.694.981 1.61.981 2.864 0 1.343-.41 2.332-1.025 3.055-.6.708-1.786 1.21-2.973 1.21-1.152 0-2.238-.272-2.841-.973l-.073-.09-.176 1.004H0V.691h2.343zm32.68 2.866c2.153 0 3.075 1.048 3.075 3.1v1.148c.003 3.69.017 4.024.043 4.046l.001.001h-2.318c-.09-.007-.098-.258-.098-3.645v-.93c0-1.019-.513-1.624-1.611-1.624-.992 0-1.874.512-1.93 1.508l-.003.101v4.59h-2.358V3.734h2.285v1.181c.468-.945 1.67-1.358 2.914-1.358zm-20.49 2.967c-1.128 0-1.86.31-2.197.96-.263.501-.234 1.254 0 1.712.322.605 1.143.93 2.197.93s1.874-.325 2.197-.93a2 2 0 000-1.713c-.337-.664-1.07-.959-2.197-.959zm9.933-.945c-.923 0-1.553.296-1.933.797-.293.37-.425.856-.425 1.403 0 .634.132 1.121.38 1.46.396.547 1.07.768 1.978.768.85 0 1.537-.25 1.933-.782.278-.354.424-.841.424-1.446 0-.62-.117-1.152-.439-1.535-.366-.414-.966-.665-1.918-.665zm-19.838.045c-.996 0-1.67.354-2.05.93-.22.339-.338.767-.338 1.24 0 .516.118.959.352 1.298.366.546 1.025.856 2.006.856.938 0 1.611-.31 1.977-.87.22-.355.323-.783.323-1.285 0-.472-.103-.9-.323-1.24-.351-.56-.995-.93-1.947-.93zm38.84-.178c-.836 0-1.45.222-1.846.576-.278.251-.498.738-.498.974h4.51c0-.236-.102-.62-.395-.93-.337-.34-.893-.62-1.772-.62zM14.532 1.993c-.703 0-1.391.206-1.713.693-.22.34-.235.974-.015 1.388.234.443.761.664 1.728.664.966 0 1.494-.221 1.728-.664.176-.34.205-1.048-.014-1.388-.323-.502-1.011-.693-1.714-.693z" fill="#fff"/></svg>