<svg width="48" height="40" viewBox="0 0 48 40" fill="none" xmlns="http://www.w3.org/2000/svg"><path fill-rule="evenodd" clip-rule="evenodd" d="M7.958 5.151c-2.022 0-3.696.727-4.87 2.105V0H.825v21.284h2.263v-2.083c1.174 1.379 2.846 2.105 4.87 2.105 4.296 0 6.662-2.869 6.662-8.077.002-5.209-2.366-8.078-6.662-8.078zm4.344 8.078c0 3.924-1.517 5.914-4.51 5.914-3.888 0-4.704-3.201-4.704-5.886 0-3.832 1.67-5.943 4.704-5.943 2.993 0 4.51 1.99 4.51 5.915zm15.807-3.012c1.895-.95 2.893-2.51 2.893-4.533a5.083 5.083 0 00-1.883-3.998C27.852.645 26.045.095 23.895.095c-2.15 0-3.957.55-5.223 1.59a5.089 5.089 0 00-1.884 4c0 2.044.995 3.614 2.882 4.561-2.282.98-3.393 2.65-3.393 5.092 0 1.784.662 3.3 1.915 4.383 1.346 1.166 3.265 1.755 5.703 1.755 5.618 0 7.618-3.17 7.618-6.138 0-2.464-1.115-4.144-3.404-5.121zm-4.214 1.23c3.488 0 5.184 1.291 5.184 3.949 0 3.582-3.968 3.86-5.184 3.86-4.81 0-5.183-2.956-5.183-3.86 0-2.658 1.695-3.95 5.183-3.95zm-4.674-5.705c0-2.146 1.747-3.428 4.672-3.428 2.926 0 4.673 1.282 4.673 3.428 0 1.622-1.225 3.516-4.673 3.516s-4.672-1.894-4.672-3.516zM1.942 25.735c1.383-1.602 3.413-2.448 5.873-2.448 4.731 0 7.786 3.269 7.786 8.329 0 2.388-.67 4.433-1.936 5.916C12.287 39.147 10.263 40 7.815 40 2.995 40 0 36.787 0 31.616c0-2.377.672-4.41 1.942-5.881zm5.873 10.877c3.537 0 4.014-2.512 4.014-4.97 0-3.53-1.163-4.971-4.014-4.971-2.87 0-4.04 1.44-4.04 4.97 0 4.38 2.042 4.971 4.04 4.971zM25.576 23.39c-1.896 0-3.43.671-4.565 1.996v-1.99h-3.7V39.83h3.698v-9.615c0-1.828 1.46-3.315 3.257-3.315 1.184 0 2.144.463 2.706 1.31.38.508.572 1.205.572 2.072v9.548h3.7V29.692c0-4.183-1.908-6.303-5.668-6.303zm15.081-.102c2.21 0 4.056.712 5.339 2.06 1.309 1.372 2 3.381 2.004 5.81 0 .352-.12 1.37-.144 1.58l-.004.036-.018.149H36.735c.303 2.63 1.546 3.806 4.008 3.806 1.442 0 2.448-.381 3.072-1.166l.05-.06h3.88l-.077.222c-1.274 3.719-4.94 4.274-7.01 4.274-4.823 0-7.703-3.135-7.703-8.384 0-2.371.663-4.404 1.915-5.876 1.363-1.604 3.364-2.45 5.787-2.45zm.028 3.27c-2.242 0-3.435.965-3.846 3.122h7.405c-.28-2.13-1.415-3.121-3.56-3.121z" fill="#1C1C1C"/></svg>