<svg width="29" height="24" viewBox="0 0 29 24" fill="none" xmlns="http://www.w3.org/2000/svg"><path fill-rule="evenodd" clip-rule="evenodd" d="M4.808 3.09c-1.222 0-2.233.437-2.942 1.264V0H.498v12.77h1.368v-1.25c.709.828 1.719 1.264 2.942 1.264 2.596 0 4.025-1.722 4.025-4.847 0-3.125-1.43-4.846-4.025-4.846zm2.624 4.847c0 2.355-.916 3.549-2.725 3.549-2.348 0-2.841-1.921-2.841-3.532 0-2.3 1.009-3.566 2.841-3.566 1.809 0 2.725 1.194 2.725 3.55zm9.55-1.807c1.145-.57 1.749-1.506 1.749-2.72 0-.948-.404-1.8-1.139-2.399-.765-.624-1.856-.954-3.155-.954-1.3 0-2.391.33-3.156.954a3.045 3.045 0 00-1.138 2.4c0 1.226.6 2.168 1.74 2.737-1.377.587-2.049 1.59-2.049 3.055 0 1.07.4 1.98 1.157 2.63.814.699 1.972 1.052 3.446 1.052 3.394 0 4.602-1.902 4.602-3.682 0-1.479-.673-2.487-2.056-3.073zm-2.545.738c2.107 0 3.131.775 3.131 2.37 0 2.149-2.397 2.316-3.131 2.316-2.906 0-3.132-1.774-3.132-2.317 0-1.594 1.024-2.369 3.132-2.369zm-2.824-3.423c0-1.287 1.055-2.057 2.822-2.057 1.768 0 2.823.77 2.823 2.057 0 .974-.74 2.11-2.822 2.11-2.084 0-2.823-1.136-2.823-2.11zM1.173 15.441c.836-.961 2.062-1.469 3.549-1.469 2.858 0 4.704 1.962 4.704 4.997 0 1.433-.405 2.66-1.17 3.55C7.423 23.49 6.2 24 4.722 24 1.81 24 0 22.072 0 18.97c0-1.426.406-2.646 1.173-3.53zm3.549 6.527c2.137 0 2.425-1.508 2.425-2.983 0-2.118-.703-2.982-2.425-2.982-1.735 0-2.442.864-2.442 2.982 0 2.628 1.234 2.983 2.442 2.983zm10.73-7.934c-1.146 0-2.072.402-2.758 1.197v-1.194H10.46v9.861h2.234V18.13a1.98 1.98 0 011.968-1.99c.715 0 1.295.278 1.635.787.23.304.345.722.345 1.243v5.728h2.235v-6.083c0-2.51-1.152-3.781-3.424-3.781zm9.112-.062c1.335 0 2.45.427 3.225 1.236.79.824 1.209 2.029 1.211 3.486 0 .211-.072.823-.087.948l-.002.022-.011.09h-6.706c.183 1.577.934 2.283 2.422 2.283.87 0 1.478-.229 1.855-.7l.03-.036h2.345l-.047.134c-.77 2.23-2.984 2.564-4.235 2.564-2.913 0-4.654-1.881-4.654-5.03 0-1.423.4-2.643 1.157-3.526.824-.962 2.032-1.47 3.497-1.47zm.016 1.963c-1.354 0-2.075.578-2.323 1.873h4.474c-.17-1.278-.855-1.873-2.15-1.873z" fill="#fff"/></svg>