<svg width="40" height="40" viewBox="0 0 40 40" xmlns="http://www.w3.org/2000/svg"><defs><clipPath id="a"><path d="M1440 0v4535H0V0h1440z"/></clipPath><clipPath id="c"><path d="M15.872 0C19.252 0 22 2.805 22 6.253c0 7.449-10.323 12.482-10.762 12.692a.546.546 0 01-.477 0C10.322 18.735 0 13.702 0 6.253 0 2.805 2.749 0 6.127 0A6.11 6.11 0 0111 2.442 6.107 6.107 0 0115.872 0zm.059 1c-1.843 0-3.542 1.022-4.437 2.668-.2.368-.788.368-.988 0C9.61 2.022 7.91 1 6.069 1 3.273 1 1 3.341 1 6.22 1 12.486 9.451 17.191 11 18c1.548-.808 10-5.513 10-11.78C21 3.34 18.726 1 15.93 1z"/></clipPath><filter id="b" x="-61.111%" y="-63.636%" filterUnits="userSpaceOnUse" width="183.333%" height="190.909%"><feGaussianBlur stdDeviation="3.5" in="SourceAlpha" result="i2"/><feOffset dy="1" in="i2" result="i3"/><feColorMatrix values="0 0 0 0.5294117647058824 0 0 0 0 0.5294117647058824 0 0 0 0 0.5294117647058824 0 0 0 0 0.3829320093968531 0" in="i3"/></filter></defs><g clip-path="url(#a)" transform="translate(-1296 -56)"><path d="M6.069 1C3.273 1 1 3.341 1 6.22 1 12.486 9.451 17.191 11 18c1.548-.808 10-5.513 10-11.78C21 3.34 18.726 1 15.93 1c-1.842 0-3.541 1.022-4.436 2.668-.2.368-.788.368-.988 0C9.61 2.022 7.91 1 6.069 1m4.692 17.945C10.322 18.735 0 13.702 0 6.253 0 2.805 2.749 0 6.127 0A6.11 6.11 0 0111 2.442 6.107 6.107 0 0115.872 0C19.252 0 22 2.805 22 6.253c0 7.449-10.323 12.482-10.762 12.692a.546.546 0 01-.477 0z" filter="url(#b)" transform="translate(1305 66)"/><g clip-path="url(#c)" transform="translate(1305 66)"><path fill="#332B31" d="M0 0h22v19H0V0z"/></g></g></svg>