<?xml version="1.0" encoding="UTF-8"?>
<svg width="40px" height="40px" viewBox="0 0 40 40" version="1.1" xmlns="http://www.w3.org/2000/svg" xmlns:xlink="http://www.w3.org/1999/xlink">
    <title>8AF5568D-D1D5-4486-B49A-441502201416</title>
    <g id="Page-1" stroke="none" stroke-width="1" fill="none" fill-rule="evenodd">
        <g id="M/-4.2-Forgot-password" transform="translate(-230.000000, -1281.000000)">
            <g id="m/-nav-bar" transform="translate(0.000000, 1271.000000)">
                <g id="icona-profilo" transform="translate(230.000000, 10.000000)">
                    <rect id="safe-area" x="0" y="0" width="40" height="40"></rect>
                    <g id="icon-/-profile" transform="translate(11.000000, 9.000000)" stroke="#332C32">
                        <g id="icona-profilo" transform="translate(0.999434, -0.000000)">
                            <path d="M8.49563937,8.89654995 C10.9751883,8.89654995 12.9926515,6.90154208 12.9926515,4.44915286 C12.9926515,1.99588576 10.9751883,0 8.49563937,0 C6.01520272,0 3.99773947,1.99588576 3.99773947,4.44915286 C3.99773947,6.90154208 6.01520272,8.89654995 8.49563937,8.89654995" id="Fill-3"></path>
                            <path d="M14.75097,19.770111 C15.1325693,19.770111 15.4662838,19.770111 16.0035202,19.770111 C16.3377901,19.770111 16.9903894,19.9492982 16.9903894,18.7831661 C16.9903894,14.4218184 13.1796263,10.873561 8.49603394,10.873561 C3.8107647,10.873561 0,14.4218024 0,18.7831661 C0,19.5149149 0.0223502228,19.5558255 0.203642357,19.6737449 C0.509053674,19.8723962 0.646813471,19.770111 1.94839198,19.770111 C3.39589297,19.770111 5.92189543,19.770111 8.49603394,19.770111 L14.75097,19.770111 Z" id="Combined-Shape"></path>
                        </g>
                    </g>
                </g>
            </g>
        </g>
    </g>
</svg>