<svg width="36" height="33" viewBox="0 0 36 33" xmlns="http://www.w3.org/2000/svg" xmlns:xlink="http://www.w3.org/1999/xlink"><defs><filter x="-50%" y="-52.6%" width="200%" height="215.8%" filterUnits="objectBoundingBox" id="a"><feOffset dy="1" in="SourceAlpha" result="shadowOffsetOuter1"/><feGaussianBlur stdDeviation="3.5" in="shadowOffsetOuter1" result="shadowBlurOuter1"/><feColorMatrix values="0 0 0 0 0.529411765 0 0 0 0 0.529411765 0 0 0 0 0.529411765 0 0 0 0.382932009 0" in="shadowBlurOuter1"/></filter><path d="M6.069 1C3.273 1 1 3.341 1 6.22 1 12.486 9.451 17.191 11 18c1.548-.808 10-5.513 10-11.78C21 3.34 18.726 1 15.93 1c-1.842 0-3.541 1.022-4.436 2.668-.2.368-.788.368-.988 0C9.61 2.022 7.91 1 6.069 1M11 19a.547.547 0 01-.239-.055C10.322 18.735 0 13.702 0 6.253 0 2.805 2.749 0 6.127 0A6.11 6.11 0 0111 2.442 6.107 6.107 0 0115.872 0C19.252 0 22 2.805 22 6.253c0 7.449-10.323 12.482-10.762 12.692A.546.546 0 0111 19" id="b"/></defs><g transform="translate(7 6)" fill="none" fill-rule="evenodd"><use fill="#000" filter="url(#a)" xlink:href="#b"/><use fill="#291660" xlink:href="#b"/></g></svg>