<svg width="13" height="13" viewBox="0 0 13 13" xmlns="http://www.w3.org/2000/svg"><path d="M5.885 9.75h.9v-3.6h-.9v3.6zm.405-4.71c.14 0 .258-.045.353-.135a.454.454 0 00.142-.345c0-.14-.047-.26-.142-.36a.467.467 0 00-.353-.15c-.14 0-.257.05-.352.15a.504.504 0 00-.143.36c0 .14.048.255.143.345.095.09.212.135.352.135zm0 7.71c-.85 0-1.64-.152-2.37-.457a5.856 5.856 0 01-1.905-1.268A5.856 5.856 0 01.748 9.12 6.086 6.086 0 01.29 6.75c0-.84.153-1.625.458-2.355A5.856 5.856 0 012.015 2.49 5.956 5.956 0 013.92 1.215 6 6 0 016.29.75c.84 0 1.625.155 2.355.465.73.31 1.365.735 1.905 1.275.54.54.965 1.175 1.275 1.905.31.73.465 1.515.465 2.355a6 6 0 01-.465 2.37 5.956 5.956 0 01-1.275 1.905c-.54.54-1.175.963-1.905 1.268a6.047 6.047 0 01-2.355.457zm0-.9c1.4 0 2.6-.5 3.6-1.5s1.5-2.2 1.5-3.6-.5-2.6-1.5-3.6-2.2-1.5-3.6-1.5-2.6.5-3.6 1.5-1.5 2.2-1.5 3.6.5 2.6 1.5 3.6 2.2 1.5 3.6 1.5z" fill="#8E8E8E"/></svg>