<svg width="20" height="22" viewBox="0 0 20 22" xmlns="http://www.w3.org/2000/svg"><path d="M4.835 7.2h6.615V4.857c0-.956-.318-1.753-.954-2.391-.636-.638-1.42-.957-2.354-.957-.933 0-1.717.32-2.353.957-.636.638-.954 1.435-.954 2.391V7.2zm5.267 13.944H1.527c-.39 0-.742-.155-1.056-.466C.157 20.368 0 20.02 0 19.634V8.709c0-.386.157-.734.47-1.044.315-.31.667-.466 1.057-.466h1.78V4.86c0-1.36.467-2.51 1.4-3.45C5.64.47 6.785 0 8.142 0c1.358 0 2.503.47 3.436 1.41.933.94 1.4 2.089 1.4 3.448V7.2h1.78c.39 0 .742.155 1.056.466.314.31.471.658.471 1.044v2.19c-.22-.05-.45-.084-.687-.1a12.114 12.114 0 00-.84-.026V8.71H1.527v10.925h7.659c.118.285.246.541.381.768.136.226.314.474.535.742zm4.987-8.86c1.34 0 2.494.478 3.46 1.435.968.956 1.451 2.097 1.451 3.423s-.483 2.467-1.45 3.423c-.967.957-2.12 1.435-3.46 1.435-1.341 0-2.495-.478-3.462-1.435-.966-.956-1.45-2.097-1.45-3.423s.484-2.467 1.45-3.423c.967-.957 2.12-1.435 3.461-1.435zm2.672 2.383l-3.753 4.493-1.77-2.118-.42.503 2.19 2.622 4.174-4.997-.42-.503z" fill="#291660"/></svg>