<svg width="240" height="30" viewBox="0 0 240 30" xmlns="http://www.w3.org/2000/svg"><defs><linearGradient x1="49.997%" y1="-1.815%" x2="49.997%" y2="99.708%" id="a"><stop stop-color="#EB0297" offset="0%"/><stop stop-color="#EB0297" offset="12%"/><stop stop-color="#EB0297" offset="16%"/><stop stop-color="#EB0297" offset="17%"/><stop stop-color="#EB0297" offset="18%"/><stop stop-color="#EA0297" offset="18%"/><stop stop-color="#E90297" offset="18%"/><stop stop-color="#E80397" offset="19%"/><stop stop-color="#E80397" offset="19%"/><stop stop-color="#E70397" offset="20%"/><stop stop-color="#E60397" offset="20%"/><stop stop-color="#E50398" offset="20%"/><stop stop-color="#E40398" offset="21%"/><stop stop-color="#E30398" offset="21%"/><stop stop-color="#E30498" offset="21%"/><stop stop-color="#E20498" offset="22%"/><stop stop-color="#E10498" offset="22%"/><stop stop-color="#E00498" offset="23%"/><stop stop-color="#DF0498" offset="23%"/><stop stop-color="#DF0498" offset="23%"/><stop stop-color="#DE0498" offset="24%"/><stop stop-color="#DD0598" offset="24%"/><stop stop-color="#DC0598" offset="25%"/><stop stop-color="#DB0599" offset="25%"/><stop stop-color="#DB0599" offset="25%"/><stop stop-color="#DA0599" offset="26%"/><stop stop-color="#D90599" offset="26%"/><stop stop-color="#D80599" offset="27%"/><stop stop-color="#D70699" offset="27%"/><stop stop-color="#D60699" offset="27%"/><stop stop-color="#D60699" offset="28%"/><stop stop-color="#D50699" offset="28%"/><stop stop-color="#D40699" offset="29%"/><stop stop-color="#D30699" offset="29%"/><stop stop-color="#D20699" offset="29%"/><stop stop-color="#D2079A" offset="30%"/><stop stop-color="#D1079A" offset="30%"/><stop stop-color="#D0079A" offset="30%"/><stop stop-color="#CF079A" offset="31%"/><stop stop-color="#CE079A" offset="31%"/><stop stop-color="#CE079A" offset="32%"/><stop stop-color="#CD079A" offset="32%"/><stop stop-color="#CC089A" offset="32%"/><stop stop-color="#CB089A" offset="33%"/><stop stop-color="#CA089A" offset="33%"/><stop stop-color="#CA089A" offset="34%"/><stop stop-color="#C9089A" offset="34%"/><stop stop-color="#C8089B" offset="34%"/><stop stop-color="#C7089B" offset="35%"/><stop stop-color="#C6099B" offset="35%"/><stop stop-color="#C5099B" offset="36%"/><stop stop-color="#C5099B" offset="36%"/><stop stop-color="#C4099B" offset="36%"/><stop stop-color="#C3099B" offset="37%"/><stop stop-color="#C2099B" offset="37%"/><stop stop-color="#C1099B" offset="38%"/><stop stop-color="#C10A9B" offset="38%"/><stop stop-color="#C00A9B" offset="38%"/><stop stop-color="#BF0A9B" offset="39%"/><stop stop-color="#BE0A9C" offset="39%"/><stop stop-color="#BD0A9C" offset="39%"/><stop stop-color="#BD0A9C" offset="40%"/><stop stop-color="#BC0A9C" offset="40%"/><stop stop-color="#BB0B9C" offset="41%"/><stop stop-color="#BA0B9C" offset="41%"/><stop stop-color="#B90B9C" offset="41%"/><stop stop-color="#B80B9C" offset="42%"/><stop stop-color="#B80B9C" offset="42%"/><stop stop-color="#B70B9C" offset="43%"/><stop stop-color="#B60B9C" offset="43%"/><stop stop-color="#B50C9C" offset="43%"/><stop stop-color="#B40C9C" offset="44%"/><stop stop-color="#B40C9D" offset="44%"/><stop stop-color="#B30C9D" offset="45%"/><stop stop-color="#B20C9D" offset="45%"/><stop stop-color="#B10C9D" offset="45%"/><stop stop-color="#B00C9D" offset="46%"/><stop stop-color="#B00D9D" offset="46%"/><stop stop-color="#AF0D9D" offset="46%"/><stop stop-color="#AE0D9D" offset="47%"/><stop stop-color="#AD0D9D" offset="47%"/><stop stop-color="#AC0D9D" offset="48%"/><stop stop-color="#AB0D9D" offset="48%"/><stop stop-color="#AB0D9D" offset="48%"/><stop stop-color="#AA0E9E" offset="49%"/><stop stop-color="#A90E9E" offset="49%"/><stop stop-color="#A80E9E" offset="50%"/><stop stop-color="#A70E9E" offset="50%"/><stop stop-color="#A70E9E" offset="50%"/><stop stop-color="#A60E9E" offset="51%"/><stop stop-color="#A50E9E" offset="51%"/><stop stop-color="#A40F9E" offset="52%"/><stop stop-color="#A30F9E" offset="52%"/><stop stop-color="#A30F9E" offset="52%"/><stop stop-color="#A20F9E" offset="53%"/><stop stop-color="#A10F9E" offset="53%"/><stop stop-color="#A00F9F" offset="54%"/><stop stop-color="#9F0F9F" offset="54%"/><stop stop-color="#9E109F" offset="54%"/><stop stop-color="#9E109F" offset="55%"/><stop stop-color="#9D109F" offset="55%"/><stop stop-color="#9C109F" offset="55%"/><stop stop-color="#9B109F" offset="56%"/><stop stop-color="#9A109F" offset="56%"/><stop stop-color="#9A109F" offset="57%"/><stop stop-color="#99119F" offset="57%"/><stop stop-color="#98119F" offset="57%"/><stop stop-color="#97119F" offset="58%"/><stop stop-color="#9611A0" offset="58%"/><stop stop-color="#9611A0" offset="59%"/><stop stop-color="#9511A0" offset="59%"/><stop stop-color="#9411A0" offset="59%"/><stop stop-color="#9312A0" offset="60%"/><stop stop-color="#9212A0" offset="60%"/><stop stop-color="#9212A0" offset="61%"/><stop stop-color="#9112A0" offset="61%"/><stop stop-color="#9012A0" offset="61%"/><stop stop-color="#8F12A0" offset="62%"/><stop stop-color="#8E12A0" offset="62%"/><stop stop-color="#8D13A0" offset="62%"/><stop stop-color="#8D13A1" offset="63%"/><stop stop-color="#8C13A1" offset="63%"/><stop stop-color="#8B13A1" offset="64%"/><stop stop-color="#8A13A1" offset="64%"/><stop stop-color="#8913A1" offset="64%"/><stop stop-color="#8913A1" offset="65%"/><stop stop-color="#8814A1" offset="65%"/><stop stop-color="#8714A1" offset="66%"/><stop stop-color="#8614A1" offset="66%"/><stop stop-color="#8514A1" offset="66%"/><stop stop-color="#8514A1" offset="67%"/><stop stop-color="#8414A1" offset="67%"/><stop stop-color="#8314A1" offset="68%"/><stop stop-color="#8215A2" offset="68%"/><stop stop-color="#8115A2" offset="68%"/><stop stop-color="#8015A2" offset="69%"/><stop stop-color="#8015A2" offset="69%"/><stop stop-color="#7F15A2" offset="70%"/><stop stop-color="#7E15A2" offset="70%"/><stop stop-color="#7D15A2" offset="70%"/><stop stop-color="#7C16A2" offset="71%"/><stop stop-color="#7C16A2" offset="71%"/><stop stop-color="#7B16A2" offset="71%"/><stop stop-color="#7A16A2" offset="72%"/><stop stop-color="#7916A2" offset="72%"/><stop stop-color="#7816A3" offset="73%"/><stop stop-color="#7816A3" offset="73%"/><stop stop-color="#7717A3" offset="73%"/><stop stop-color="#7617A3" offset="74%"/><stop stop-color="#7517A3" offset="74%"/><stop stop-color="#7417A3" offset="75%"/><stop stop-color="#7317A3" offset="75%"/><stop stop-color="#7317A3" offset="75%"/><stop stop-color="#7217A3" offset="76%"/><stop stop-color="#7118A3" offset="76%"/><stop stop-color="#7018A3" offset="77%"/><stop stop-color="#6F18A3" offset="77%"/><stop stop-color="#6F18A4" offset="77%"/><stop stop-color="#6E18A4" offset="78%"/><stop stop-color="#6D18A4" offset="78%"/><stop stop-color="#6C18A4" offset="79%"/><stop stop-color="#6B19A4" offset="79%"/><stop stop-color="#6B19A4" offset="79%"/><stop stop-color="#6A19A4" offset="80%"/><stop stop-color="#6919A4" offset="80%"/><stop stop-color="#6819A4" offset="80%"/><stop stop-color="#6719A4" offset="81%"/><stop stop-color="#6719A4" offset="81%"/><stop stop-color="#661AA4" offset="82%"/><stop stop-color="#651AA5" offset="82%"/><stop stop-color="#641AA5" offset="82%"/><stop stop-color="#631AA5" offset="83%"/><stop stop-color="#621AA5" offset="83%"/><stop stop-color="#621AA5" offset="84%"/><stop stop-color="#611AA5" offset="84%"/><stop stop-color="#601BA5" offset="84%"/><stop stop-color="#5F1BA5" offset="85%"/><stop stop-color="#5E1BA5" offset="85%"/><stop stop-color="#5E1BA5" offset="86%"/><stop stop-color="#5D1BA5" offset="86%"/><stop stop-color="#5C1BA5" offset="86%"/><stop stop-color="#5B1BA6" offset="87%"/><stop stop-color="#5A1CA6" offset="87%"/><stop stop-color="#5A1CA6" offset="88%"/><stop stop-color="#591CA6" offset="88%"/><stop stop-color="#581CA6" offset="88%"/><stop stop-color="#571CA6" offset="89%"/><stop stop-color="#561CA6" offset="89%"/><stop stop-color="#551CA6" offset="89%"/><stop stop-color="#551DA6" offset="90%"/><stop stop-color="#541DA6" offset="90%"/><stop stop-color="#531DA6" offset="91%"/><stop stop-color="#521DA6" offset="91%"/><stop stop-color="#511DA6" offset="91%"/><stop stop-color="#511DA7" offset="92%"/><stop stop-color="#501DA7" offset="92%"/><stop stop-color="#4F1EA7" offset="93%"/><stop stop-color="#4E1EA7" offset="93%"/><stop stop-color="#4D1EA7" offset="93%"/><stop stop-color="#4D1EA7" offset="94%"/><stop stop-color="#4C1EA7" offset="94%"/><stop stop-color="#4B1EA7" offset="95%"/><stop stop-color="#4A1EA7" offset="95%"/><stop stop-color="#491FA7" offset="95%"/><stop stop-color="#481FA7" offset="96%"/><stop stop-color="#481FA7" offset="96%"/><stop stop-color="#471FA8" offset="96%"/><stop stop-color="#461FA8" offset="97%"/><stop stop-color="#451FA8" offset="97%"/><stop stop-color="#441FA8" offset="98%"/><stop stop-color="#4420A8" offset="98%"/><stop stop-color="#4320A8" offset="98%"/><stop stop-color="#4220A8" offset="100%"/></linearGradient></defs><g fill="none"><path d="M82.856 0h2.684v3.654h-2.684c0-1.208-.094-2.447 0-3.654zM43.197 1.303a12.41 12.41 0 012.684-.286h10.23c1.864 0 3.727.858 5.021 2.256 2.337 2.35 2.621 6.45.569 9.086-.38.477-.664.858-.916 1.303 1.39 1.112 2.779 2.446 3.536 4.13 1.106 2.638.758 5.91-.915 8.23-1.674 2.35-4.547 3.844-7.358 3.653H45.155c-.569 0-1.295 0-1.769-.476-.284-.382-.189-.922-.284-1.303V7.403c0-1.97-.284-4.035.095-6.1zm2.526 2.541v8.801c2.62.096 5.21 0 7.926.096 1.389 0 2.873.19 4.2-.477 1.578-.762 2.62-2.637 2.43-4.416-.189-1.494-1.2-2.892-2.62-3.463-1.105-.572-2.432-.477-3.631-.477-2.716-.159-5.526-.064-8.305-.064zm0 11.597V26.88c2.526.096 5.115 0 7.641.096 1.674 0 3.442.19 5.021-.477 2.431-.921 4.01-3.75 3.442-6.354-.474-2.542-2.779-4.671-5.4-4.766-2.968-.096-5.873 0-8.84 0-.475.063-1.232.063-1.864.063zm90.15-14.043c.473-.381 1.105-.286 1.673-.286h9.41c1.01 0 2.052-.095 3.062.19 2.242.573 4.105 2.161 4.926 4.322.663 1.588.663 3.463.095 5.051-.379 1.208-1.2 2.161-1.863 3.082 1.579 1.208 2.968 2.701 3.631 4.67.853 2.257.569 4.862-.663 7.023-1.484 2.637-4.389 4.416-7.357 4.416h-11.525c-.663 0-1.579-.095-1.768-.858-.285-1.017-.095-2.065-.095-3.082V2.891c.126-.54.031-1.207.473-1.493zm2.43 2.446v8.801c2.78.096 5.59 0 8.274 0 1.294 0 2.684.096 3.915-.572 1.674-.857 2.62-2.89 2.147-4.765-.284-1.303-1.2-2.542-2.431-2.987-1.2-.572-2.526-.477-3.82-.477-2.685-.095-5.4 0-8.084 0zm0 11.597v11.502c2.685.095 5.4 0 8.084.095 1.39 0 2.874.095 4.295-.381 1.673-.572 3.062-1.97 3.63-3.75.38-1.397.285-2.986-.473-4.32-1.01-1.875-3.063-3.177-5.21-3.082-3.442-.064-6.883-.159-10.325-.064zM72.974 10.2c1.579-.922 3.442-1.207 5.305-1.303v2.7c-1.674.287-3.442.477-4.642 1.685-1.673 1.398-2.147 3.749-2.242 5.814 0 3.559.095 7.117 0 10.676h-2.778V19.476c0-1.684.19-3.368.852-4.956.632-1.78 1.926-3.368 3.505-4.321zm22.703-.54c3.726-1.208 7.989-.922 11.273 1.302-.474.763-1.01 1.494-1.579 2.256-2.052-1.112-4.389-1.779-6.694-1.302-1.674.286-3.442.921-4.547 2.35-1.484 1.78-1.768 4.226-1.579 6.45.19 1.97.916 4.036 2.621 5.148 1.958 1.398 4.452 1.588 6.789 1.207 1.484-.19 2.684-1.017 4.01-1.78.663.668 1.295 1.303 1.863 2.066-1.958 1.78-4.642 2.7-7.262 2.637-3.063.095-6.41-.763-8.463-3.177-2.431-2.796-2.684-6.831-2.052-10.39.41-3.018 2.652-5.75 5.62-6.767zm22.072-.572c2.336-.381 4.736-.286 7.073.476 2.336.858 4.294 2.701 5.21 5.052 1.01 2.7 1.105 5.815.284 8.706-.663 2.446-2.431 4.48-4.736 5.623-2.432 1.112-5.116 1.112-7.642.858-3.063-.381-5.968-2.446-7.167-5.433a13.58 13.58 0 010-9.722c1.105-2.955 3.883-5.084 6.978-5.56zm.916 2.796c-1.674.19-3.347.921-4.39 2.35-1.673 2.161-1.673 5.053-1.294 7.594.379 2.161 1.958 4.13 4.105 4.862 2.526.857 5.4.762 7.736-.477 1.579-.858 2.62-2.446 2.968-4.13.474-1.97.379-4.035-.19-5.91-.473-1.398-1.389-2.637-2.683-3.368-1.958-1.112-4.2-1.27-6.252-.921zm46.258-1.303c1.674-1.207 3.821-1.684 5.968-1.684v2.7c-1.579.287-3.347.477-4.547 1.494-1.673 1.398-2.336 3.654-2.336 5.72-.095 3.653 0 7.211 0 10.865h-2.78v-8.8c0-1.59-.094-3.178.285-4.767.347-2.065 1.547-4.225 3.41-5.528zm11.526.477c2.62-1.97 5.967-2.447 9.125-2.065 2.337.285 4.642 1.397 6.157 3.272 1.58 1.97 2.242 4.48 2.242 7.022v4.225c0 1.208-.19 2.447-1.01 3.368-.916 1.112-2.337 1.875-3.726 2.351-2.242.763-4.642.668-6.978.668-2.78-.096-5.779-.572-7.831-2.542-1.39-1.208-1.58-3.177-1.295-4.957.19-1.684 1.01-3.272 2.526-4.13 1.674-.921 3.726-1.017 5.59-1.112h9.661c-.379-1.684-1.2-3.368-2.778-4.321-1.958-1.112-4.295-1.493-6.41-1.017-1.295.19-2.526.763-3.632 1.303-.6-.572-1.168-1.335-1.641-2.065zm.284 9.913c-.916.762-1.01 2.065-.916 3.177.095 1.112 1.2 1.78 2.147 2.16 2.432.858 5.115 1.017 7.642.668 1.294-.096 2.62-.382 3.82-.922.758-.381 1.484-.921 1.579-1.78.284-1.397.095-2.795.095-4.32-3.537-.095-7.168 0-10.704 0-1.232.286-2.621.286-3.663 1.017zm50.174-11.788c2.968-.476 6.157-.286 8.746 1.207 2.621 1.494 4.105 4.48 4.295 7.403.094 2.352.19 4.67-.916 6.831-1.2 2.796-3.915 4.67-6.883 5.052-2.684.381-5.59.286-8.084-.921-2.684-1.303-4.389-4.13-4.736-7.022-.38-2.796-.19-5.719 1.2-8.229 1.263-2.256 3.757-3.94 6.378-4.32zm1.673 2.605c-1.768.191-3.536.763-4.736 1.97-1.295 1.398-1.768 3.273-1.863 5.147-.095 1.875.284 3.94 1.295 5.529.663.921 1.578 1.588 2.62 2.065 2.242.921 4.737.921 6.979.19 1.957-.571 3.536-2.35 4.105-4.32.379-1.398.473-2.987.284-4.417-.19-1.874-1.105-3.749-2.684-4.86-1.737-1.208-3.979-1.462-6-1.304zM82.856 9.373a12.623 12.623 0 012.684 0V29.77h-2.684V9.373zm114.274 0h2.873c1.863 3.844 3.442 7.784 5.21 11.692.569 1.303 1.105 2.637 1.863 3.844 2.242-4.956 4.39-9.913 6.6-14.9.189-.287.284-.668.663-.668.915-.095 1.768 0 2.684 0-2.432 5.91-5.116 11.692-7.642 17.602-.379.858-.663 1.779-1.2 2.542-.536.762-1.768.571-2.242-.191-.852-1.398-1.294-2.987-2.052-4.48-2.305-5.147-4.642-10.294-6.757-15.441z" fill="#332C32"/><path d="M6.086.155C.117 1.25-2.948 10.953 3.936 20.694c6.882 9.74 15.687 12.356 24.603 5.35 8.917-7.006 11.563-19.247 7.801-22.058C31.094.07 26.87 9.532 20.438 8.41 14.007 7.291 13.734-1.247 6.086.155z" fill="url(#a)"/></g></svg>