<?xml version="1.0" encoding="UTF-8"?>
<svg width="29px" height="15px" viewBox="0 0 29 15" version="1.1" xmlns="http://www.w3.org/2000/svg" xmlns:xlink="http://www.w3.org/1999/xlink">
    <title>B5E98342-CDA1-42EF-88B3-0091197C0F33</title>
    <g id="Page-1" stroke="none" stroke-width="1" fill="none" fill-rule="evenodd" stroke-linecap="round">
        <g id="D/-2.0-PLP-(default)" transform="translate(-541.000000, -1791.000000)" stroke="#1B0E41">
            <g id="d/-card-prodotto-copy" transform="translate(395.000000, 1511.000000)">
                <g id="icona-spedizione-copy" transform="translate(147.000000, 281.000000)">
                    <path d="M13,11 C13,12.1044248 12.1046692,13 11,13 C9.89533083,13 9,12.1044248 9,11 C9,9.8960177 9.89533083,9 11,9 C12.1046692,9 13,9.8960177 13,11 Z" id="Stroke-1" stroke-linejoin="round"></path>
                    <line x1="13" y1="12" x2="21" y2="12" id="Stroke-3" stroke-linejoin="round"></line>
                    <line x1="4" y1="5.5" x2="0" y2="5.5" id="Path-2"></line>
                    <line x1="4" y1="7.5" x2="3" y2="7.5" id="Path-2-Copy"></line>
                    <line x1="6" y1="12" x2="9" y2="12" id="Stroke-5" stroke-linejoin="round"></line>
                    <path d="M19,3 L21.9328744,3 C21.9328744,3 22.8562823,3.00642276 23.179432,3.93087207 C23.436747,4.66477949 23.8072289,5.64917456 24.3997418,7.14953138 L26.0753012,7.14953138 C26.5787435,7.14953138 27,7.4625339 27,7.9262572 L27,12 L24.6002582,12" id="Stroke-7" stroke-linejoin="round"></path>
                    <path d="M25,11 C25,12.1044248 24.1047682,13 22.9997787,13 C21.8947892,13 21,12.1044248 21,11 C21,9.8960177 21.8947892,9 22.9997787,9 C24.1047682,9 25,9.8960177 25,11 Z" id="Stroke-9" stroke-linejoin="round"></path>
                    <path d="M19,8.68752117 L19,0.99378882 C19,0.444946358 18.57756,0 18.0569082,0 L6.94394959,0 C6.42158221,0 6,0.444946358 6,0.99378882 L6,12" id="Stroke-11" stroke-linejoin="round"></path>
                </g>
            </g>
        </g>
    </g>
</svg>