<svg width="35" height="20" viewBox="0 0 35 20" xmlns="http://www.w3.org/2000/svg"><defs><clipPath id="a"><path d="M1440 0v4605H0V0h1440z"/></clipPath><clipPath id="b"><path d="M26.237 0c.264 0 .517.106.702.295C32.313 5.682 35 8.917 35 10c0 1.095-2.687 4.33-8.061 9.705a.982.982 0 01-.702.295H1a1 1 0 01-1-1V1a1 1 0 011-1h25.237z"/></clipPath></defs><g clip-path="url(#a)" transform="translate(-507 -915)"><g clip-path="url(#b)" transform="translate(507 915)"><path fill="#4320A8" d="M0 0h35v20H0V0z"/></g><text transform="translate(515.875 930)" font-family="Roboto-Medium, Roboto" font-size="16" font-weight="300" fill="#FFF" text-anchor="left">%</text></g></svg>