<svg width="56" height="20" viewBox="0 0 56 20" fill="none" xmlns="http://www.w3.org/2000/svg"><path d="M40.476 7.49H38.47v6.826a.236.236 0 01-.236.234h-1.546a.236.236 0 01-.235-.234V7.491H34.43a.227.227 0 01-.236-.223V6.059a.224.224 0 01.236-.223h6.043a.236.236 0 01.248.223v1.209a.236.236 0 01-.245.223zm6.438 7.014a15.56 15.56 0 01-2.39.153c-1.524 0-2.87-.387-2.87-2.521V8.24c0-2.135 1.359-2.51 2.881-2.51.794-.01 1.586.04 2.372.152.165.024.235.083.235.234v1.096a.236.236 0 01-.235.233h-2.482c-.552 0-.756.183-.756.798V9.31h3.151c.13 0 .235.105.236.234v1.113a.236.236 0 01-.236.234h-3.15v1.244c0 .61.2.798.755.798h2.49c.129 0 .233.105.234.233v1.096c.002.146-.07.217-.235.24zm8.909.046h-1.877a.311.311 0 01-.307-.183l-1.629-2.556-1.47 2.509c-.083.14-.166.233-.296.233H48.5a.157.157 0 01-.128-.033.155.155 0 01-.056-.12.215.215 0 01.024-.082l2.56-4.234-2.584-4.025a.165.165 0 01-.024-.071.17.17 0 01.184-.153h1.9c.131 0 .225.116.297.222l1.511 2.374 1.47-2.374a.382.382 0 01.297-.222H55.7a.17.17 0 01.184.153.163.163 0 01-.024.071l-2.574 4.048 2.679 4.2c.02.036.032.076.035.117-.022.08-.083.126-.177.126zM31.366 5.86a.184.184 0 00-.183.144l-1.716 6.303c-.024.13-.058.182-.165.182-.107 0-.142-.047-.166-.182l-1.71-6.303a.184.184 0 00-.183-.145h-1.688a.184.184 0 00-.147.067.181.181 0 00-.037.156l2.116 7.304c.28.862.958 1.278 1.82 1.278a1.838 1.838 0 001.82-1.278 3993.1 3993.1 0 002.082-7.304.181.181 0 00-.039-.155.184.184 0 00-.145-.066l-1.659-.002zM21.801 0H4.203a1.83 1.83 0 00-1.551.883 1.804 1.804 0 00-.05 1.776l1.761 3.33H1.172a1.15 1.15 0 00-1.002.546 1.136 1.136 0 00-.035 1.134l5.662 10.627c.204.382.603.62 1.037.62.435 0 .834-.238 1.037-.62l1.537-2.88 1.93 3.627c.314.589.93.957 1.6.957.672 0 1.287-.368 1.601-.957l8.825-16.48A1.732 1.732 0 0023.318.84 1.757 1.757 0 0021.8 0zm-7.863 6.962l-3.86 7.191a.766.766 0 01-1.352 0L4.915 7.032a.702.702 0 01.018-.697.712.712 0 01.61-.342h7.8a.665.665 0 01.576.316c.122.199.13.448.019.653z" fill="#000"/></svg>