<svg width="16" height="12" viewBox="0 0 16 12" fill="none" xmlns="http://www.w3.org/2000/svg"><path d="M15.84 2.59s-.156-1.177-.637-1.694c-.61-.68-1.29-.683-1.603-.723C11.363 0 8.003 0 8.003 0h-.006S4.637 0 2.4.173c-.313.04-.994.044-1.603.723C.316 1.413.162 2.59.162 2.59S0 3.972 0 5.352v1.293c0 1.38.16 2.762.16 2.762s.156 1.177.634 1.693c.61.68 1.41.657 1.765.73C3.841 11.96 8 12 8 12s3.363-.007 5.6-.177c.313-.04.994-.043 1.603-.723.481-.516.638-1.693.638-1.693S16 8.027 16 6.645V5.352c0-1.38-.16-2.763-.16-2.763zM6.348 8.213V3.42l4.322 2.406-4.322 2.39z" fill="#111"/></svg>