<?xml version="1.0" encoding="UTF-8"?>
<svg width="70px" height="70px" viewBox="0 0 70 70" version="1.1" xmlns="http://www.w3.org/2000/svg" xmlns:xlink="http://www.w3.org/1999/xlink">
    <title>A971E5CD-2077-47DB-B2AA-67FFCA72294E</title>
    <defs>
        <rect id="path-1" x="0" y="0" width="70" height="70"></rect>
        <polygon id="path-3" points="0 0 55 0 55 54 0 54"></polygon>
    </defs>
    <g id="Page-1" stroke="none" stroke-width="1" fill="none" fill-rule="evenodd">
        <g id="D/Homepage-unlogged" transform="translate(-569.000000, -563.000000)">
            <g id="d/-highlights-categories" transform="translate(137.000000, 538.000000)">
                <g id="3_cat" transform="translate(387.500000, 0.000000)">
                    <g id="icon" transform="translate(19.500000, 0.000000)">
                        <g transform="translate(25.000000, 25.000000)">
                            <mask id="mask-2" fill="white">
                                <use xlink:href="#path-1"></use>
                            </mask>
                            <g id="safe-area"></g>
                            <g id="Group-19" mask="url(#mask-2)">
                                <g transform="translate(7.000000, 8.000000)">
                                    <mask id="mask-4" fill="white">
                                        <use xlink:href="#path-3"></use>
                                    </mask>
                                    <g id="Clip-2" stroke="none" fill="none"></g>
                                    <path d="M2.20736459,40.0641649 L4.07734114,38.26746 L15.2459941,50.0218526 L13.3684315,51.8270862 C13.1749856,52.0118739 12.9578332,52.1047416 12.6524922,52.1047416 C12.3841335,52.0981082 12.1356883,51.9881832 11.9517251,51.7948668 L2.17512362,41.5045613 C1.78918018,41.098976 1.80340414,40.4526929 2.20736459,40.0641649 L2.20736459,40.0641649 Z M3.46002129,33.2592396 L5.26456762,31.5250782 L21.995737,49.1348717 L20.1826563,50.8775618 C19.9607626,51.0898307 19.6734386,51.1959652 19.376632,51.1978604 C19.1139629,51.1921747 18.8740521,51.0888831 18.7024163,50.9078859 L3.36329837,34.7621795 C2.98304452,34.3632276 3.02761292,33.6743012 3.46002129,33.2592396 L3.46002129,33.2592396 Z M6.09714338,27.160298 L6.23653819,27.02763 C6.55325835,26.723441 6.96764971,26.5576059 7.40764419,26.5576059 C7.90358624,26.5680298 8.32556371,26.7547127 8.63659429,27.0825925 L26.5530937,45.9385184 C27.204551,46.6246019 27.1808444,47.7162707 26.4980944,48.3720302 L26.3615443,48.5037506 C26.0343933,48.8174159 25.6019849,48.9813557 25.1487147,48.9737747 C24.693548,48.9633508 24.2715706,48.7766678 23.9595917,48.4487881 L6.0440406,29.5928622 C5.39163499,28.9067787 5.41628986,27.8151098 6.09714338,27.160298 L6.09714338,27.160298 Z M35.2818635,18.0071476 L36.7858101,19.5896883 L19.8071438,35.9078632 L18.3031972,34.3253225 L35.2818635,18.0071476 Z M28.4477251,8.06083144 C27.7953195,7.37380026 27.8199743,6.28307905 28.5017761,5.62731964 L28.6392744,5.49559918 C28.9559946,5.19141021 29.3703859,5.02462747 29.8103804,5.02462747 C30.3072707,5.03599902 30.7292482,5.22173434 31.0402788,5.55056168 L48.9567781,24.4064876 C49.6082355,25.0925711 49.5845289,26.18424 48.9027271,26.8390517 L48.7642806,26.9717198 C48.4380778,27.2844375 47.9999798,27.4540631 47.5523992,27.4417439 C47.0972325,27.43132 46.675255,27.244637 46.3632762,26.9167573 L28.4477251,8.06083144 Z M34.8181624,3.12178802 C35.0400562,2.90857145 35.3292767,2.79106543 35.6232385,2.80148935 C35.8868559,2.80717513 36.1267667,2.91046671 36.2974542,3.09146389 L51.6375204,19.2362226 C52.016826,19.6361222 51.9722576,20.324101 51.5398492,20.7401102 L49.7362511,22.4742716 L33.0041334,4.86447813 L34.8181624,3.12178802 Z M41.6323873,2.17226356 C41.8248849,1.98747587 42.0458304,1.89176532 42.3483266,1.89454667 C42.615737,1.90124161 42.8651304,2.0111666 43.0481454,2.20353533 L52.8256951,12.4947885 C53.2116386,12.9003738 53.1964663,13.5466569 52.7934542,13.9351849 L50.9234776,15.7318898 L39.7548246,3.97654957 L41.6323873,2.17226356 Z M10.5757941,53.0997523 C11.110615,53.6616964 11.8312956,53.9810474 12.608872,53.9990524 C12.6316304,54 12.655337,54 12.677147,54 C13.4291204,54 14.1384218,53.7147636 14.6817771,53.1935675 L16.5517536,51.3968626 L17.3264853,52.2127713 C17.849927,52.7623963 18.5620732,53.0751139 19.3339601,53.0931189 C19.3576667,53.0931189 19.3794768,53.0931189 19.4031834,53.0931189 C20.1845529,53.0931189 20.925147,52.7927204 21.4978985,52.2430955 L23.4257191,50.3904804 C23.9339886,50.6785596 24.502947,50.8548187 25.1050946,50.8680855 C25.1344908,50.8690331 25.1619904,50.8690331 25.1904383,50.8690331 C26.1235301,50.8690331 27.0025708,50.516515 27.6758382,49.8692843 C27.6758382,49.8692843 27.8133365,49.7375638 27.8133365,49.7375638 C29.2442668,48.3625539 29.2954731,46.0730817 27.9290247,44.6336329 L21.0247147,37.3672122 L38.0915696,20.9637507 L44.9873452,28.2216428 C45.6501817,28.9181502 46.5453429,29.3142592 47.5087791,29.3360547 C47.5381752,29.3370023 47.5656749,29.3370023 47.5931746,29.3370023 C48.5262663,29.3370023 49.405307,28.9844843 50.0776262,28.3382011 L50.2160727,28.2064807 C51.388127,27.0806972 51.6185551,25.348431 50.9206328,23.9648924 L52.8550913,22.1056439 C54.0432661,20.9637507 54.1143859,19.0912354 53.0134514,17.9322849 L52.2292371,17.1068998 L54.107748,15.3007186 C55.2598887,14.19294 55.3016123,12.3488536 54.2016261,11.1899031 L44.4240764,0.899597541 C43.8902038,0.337653423 43.1685749,0.0183023807 42.3919467,0.000145746697 C41.5906637,-0.00728360781 40.8785174,0.26942412 40.3180934,0.805782249 L38.4490651,2.60248722 L37.6733852,1.78657848 C37.1508918,1.23600591 36.4387455,0.9242359 35.6659104,0.906230945 C34.8731617,0.889173619 34.0917922,1.19051971 33.5029203,1.75625434 L31.5750996,3.60886944 C31.0658819,3.31984253 30.4978718,3.14453113 29.8947759,3.13031669 C28.9379775,3.12368328 28.0191098,3.46293454 27.3240323,4.1300655 L27.1874823,4.26178596 C25.7565519,5.63679593 25.7043974,7.92626809 27.0717941,9.36476922 L33.976104,16.6321376 L16.9092491,33.0355991 L10.0125253,25.777707 C9.35063705,25.0802519 8.45547587,24.6850906 7.49109141,24.6632951 C6.50489689,24.6253899 5.61542529,24.9959129 4.92224433,25.660201 L4.78379779,25.7938167 C3.61269179,26.9186526 3.38131538,28.6509188 4.08018593,30.0344574 L2.14572744,31.8937059 C0.957552685,33.0355991 0.885484624,34.9081144 1.98736735,36.0670649 L2.77063339,36.89245 L0.892122472,38.6986312 C-0.260018248,39.8064098 -0.301741862,41.6504962 0.799192603,42.8094467 L10.5757941,53.0997523 Z" id="Fill-1" stroke="none" fill="#291660" fill-rule="evenodd" mask="url(#mask-4)"></path>
                                </g>
                            </g>
                        </g>
                    </g>
                </g>
            </g>
        </g>
    </g>
</svg>