<?xml version="1.0" encoding="UTF-8"?>
<svg width="70px" height="70px" viewBox="0 0 70 70" version="1.1" xmlns="http://www.w3.org/2000/svg" xmlns:xlink="http://www.w3.org/1999/xlink">
    <title>0A1933EB-BA44-4AF9-9043-D59C3F7FB954</title>
    <defs>
        <rect id="path-1" x="0" y="0" width="70" height="70"></rect>
    </defs>
    <g id="Page-1" stroke="none" stroke-width="1" fill="none" fill-rule="evenodd">
        <g id="D/Homepage-unlogged" transform="translate(-990.000000, -563.000000)">
            <g id="d/-highlights-categories" transform="translate(137.000000, 538.000000)">
                <g id="5_cat" transform="translate(811.000000, 0.000000)">
                    <g id="icon" transform="translate(17.000000, 0.000000)">
                        <g transform="translate(25.000000, 25.000000)">
                            <mask id="mask-2" fill="white">
                                <use xlink:href="#path-1"></use>
                            </mask>
                            <g id="safe-area"></g>
                            <g id="Group-15" mask="url(#mask-2)" stroke="#291660" stroke-linecap="round" stroke-linejoin="round" stroke-width="2">
                                <g transform="translate(2.000000, 13.000000)">
                                    <line x1="0" y1="12.0395" x2="66.652" y2="12.0395" id="Stroke-1"></line>
                                    <path d="M18.0963,34.878 L18.0963,6.271 C18.0963,2.822 20.9183,0 24.3673,0 C27.8163,0 30.6383,2.822 30.6383,6.271 L30.6383,12.039" id="Stroke-3"></path>
                                    <path d="M34.2218,35.0909 L34.2218,6.2719 C34.2218,2.8219 37.0438,0.0009 40.4928,0.0009 C43.9418,0.0009 46.7638,2.8219 46.7638,6.2719 L46.7638,12.0399" id="Stroke-5"></path>
                                    <line x1="18.0963" y1="19.3786" x2="34.2223" y2="19.3786" id="Stroke-7"></line>
                                    <line x1="18.0963" y1="26.9038" x2="34.2223" y2="26.9038" id="Stroke-9"></line>
                                    <path d="M0,31.0208 C1.293,33.4678 3.858,35.1388 6.818,35.1388 C9.645,35.1388 12.11,33.6138 13.453,31.3458 C14.797,33.6138 17.262,35.1388 20.089,35.1388 C22.916,35.1388 25.38,33.6138 26.724,31.3458 C28.067,33.6138 30.532,35.1388 33.359,35.1388 C36.186,35.1388 38.651,33.6138 39.994,31.3458 C41.338,33.6138 43.802,35.1388 46.629,35.1388 C49.456,35.1388 51.921,33.6138 53.264,31.3458 C54.608,33.6138 57.073,35.1388 59.9,35.1388 C62.811,35.1388 65.339,33.5238 66.652,31.1428" id="Stroke-11"></path>
                                    <path d="M9.1533,39.9462 C10.4963,42.2142 12.9613,43.7392 15.7883,43.7392 C18.6153,43.7392 21.0803,42.2142 22.4233,39.9462 C23.7673,42.2142 26.2313,43.7392 29.0593,43.7392 C31.8853,43.7392 34.3503,42.2142 35.6943,39.9462 C37.0373,42.2142 39.5023,43.7392 42.3293,43.7392 C45.1563,43.7392 47.6203,42.2142 48.9643,39.9462 C50.3073,42.2142 52.7723,43.7392 55.5993,43.7392 C58.5103,43.7392 61.0393,42.1232 62.3523,39.7432" id="Stroke-13"></path>
                                </g>
                            </g>
                        </g>
                    </g>
                </g>
            </g>
        </g>
    </g>
</svg>